<svg height="95" viewBox="0 0 230 95" width="230" xmlns="http://www.w3.org/2000/svg" xmlns:xlink="http://www.w3.org/1999/xlink"><clipPath id="a"><path d="m1002 946h230v95h-230z"/></clipPath><g clip-path="url(#a)" transform="translate(-1002 -946)"><g fill="#051441" transform="translate(1000.543 877.043)"><path d="m53.357 132.209a6.166 6.166 0 0 0 1.457.546 18.918 18.918 0 0 0 8.377 2 18.393 18.393 0 0 0 .182-36.785c-6.556 0-12.565 6.374-16.572 10.38l-4.917 4.917-8.377-8.377c-3.278-3.278-6.92-6.92-13.294-6.92-10.38.182-18.757 8.559-18.757 18.575a18.542 18.542 0 0 0 18.211 18.393 17.216 17.216 0 0 0 8.377-2c2.367-1.457 8.741-5.281 12.383-8.923l.911-.911 4.553 4.371a26.826 26.826 0 0 0 7.466 4.734zm-2.914-17.846 2-2c2.914-2.914 7.466-7.284 10.744-7.284 6.192 0 11.655 5.827 11.655 12.019a11.858 11.858 0 0 1 -11.655 11.655 18.6 18.6 0 0 1 -7.284-2.185 44.313 44.313 0 0 1 -9.652-8.195zm-14.568 4.737a59.776 59.776 0 0 1 -10.562 7.648 10.974 10.974 0 0 1 -5.281 1.457 11.655 11.655 0 0 1 0-23.31c3.642 0 5.281 1.639 8.377 4.917l8.559 8.377z"/><path d="m87.775 128.021a2.719 2.719 0 0 1 -.546-1.821v-18.757a2.111 2.111 0 0 1 .728-1.821 2.338 2.338 0 0 1 1.821-.728 2.111 2.111 0 0 1 1.821.728 2.338 2.338 0 0 1 .728 1.821v16.936h8.559c1.639 0 2.367.728 2.367 2.185s-.728 2.185-2.367 2.185h-11.286a3.424 3.424 0 0 1 -1.825-.728z"/><path d="m105.986 108.535a2.935 2.935 0 0 1 -.728-1.275 2.055 2.055 0 0 1 .546-2 2.452 2.452 0 0 1 1.639-.911 3.1 3.1 0 0 1 1.821 0 2.62 2.62 0 0 1 1.639 3.1 3.148 3.148 0 0 1 -4.917 1.086zm.182 19.667a2.112 2.112 0 0 1 -.728-1.821v-12.2a2.111 2.111 0 0 1 .728-1.821 3.308 3.308 0 0 1 3.642 0 1.918 1.918 0 0 1 .728 1.821v12.2a2.111 2.111 0 0 1 -.728 1.821 3.348 3.348 0 0 1 -2.914.364.946.946 0 0 1 -.728-.366z"/><path d="m129.113 113.634a8.308 8.308 0 0 1 1.457 5.281v7.648a2.338 2.338 0 0 1 -.728 1.821 3.076 3.076 0 0 1 -1.821.546 2.719 2.719 0 0 1 -1.821-.546 2.427 2.427 0 0 1 -.728-1.821v-7.463a3.756 3.756 0 0 0 -.546-2.367 2.269 2.269 0 0 0 -2-.728 3.306 3.306 0 0 0 -2.549 1.093 4.473 4.473 0 0 0 -.911 2.732v7.1a2.338 2.338 0 0 1 -.728 1.821 3.308 3.308 0 0 1 -3.642 0 1.918 1.918 0 0 1 -.728-1.821v-12.2a1.775 1.775 0 0 1 .728-1.639 3.076 3.076 0 0 1 1.821-.546 2.226 2.226 0 0 1 1.639.546 2.308 2.308 0 0 1 .728 1.639v.546a.636.636 0 0 1 .182-.364l.364-.364.728-.728a7.848 7.848 0 0 1 4.371-1.457c1.635-.186 3.271-.004 4.184 1.271z"/><path d="m148.6 124.378c.182.182.182.182.182.364a2.155 2.155 0 0 1 -.182 1.821c-.364.728-.911.911-1.457 1.275a10.268 10.268 0 0 1 -2.185.728 18.939 18.939 0 0 1 -2.732.364 10.082 10.082 0 0 1 -4.735-1.093 7.946 7.946 0 0 1 -3.1-2.914 8.871 8.871 0 0 1 -1.093-4.553 8.652 8.652 0 0 1 1.096-4.37 7.755 7.755 0 0 1 7.1-4.188 9.924 9.924 0 0 1 4.006.911 7.3 7.3 0 0 1 2.549 2.732 10.117 10.117 0 0 1 .911 4.188 1.539 1.539 0 0 1 -.364 1.093 1.391 1.391 0 0 1 -.911.364h-9.285a4.8 4.8 0 0 0 1.275 2.914 3.576 3.576 0 0 0 2.732.911 5.614 5.614 0 0 0 1.821-.182l1.639-.546a5.317 5.317 0 0 1 1.639-.364 1.1 1.1 0 0 1 .728.182.392.392 0 0 1 .366.363zm-9.105-8.195a4.768 4.768 0 0 0 -1.093 2.732h6.374a4.473 4.473 0 0 0 -.911-2.732 3.078 3.078 0 0 0 -4.371 0z"/><path d="m153.333 128.2a2.111 2.111 0 0 1 -.728-1.821v-18.936a2.111 2.111 0 0 1 .728-1.821 2.338 2.338 0 0 1 1.821-.728 2.111 2.111 0 0 1 1.821.728 2.338 2.338 0 0 1 .728 1.821v18.757a3.514 3.514 0 0 1 -.546 1.821 3.274 3.274 0 0 1 -2.914.728 3.982 3.982 0 0 1 -.91-.549z"/><path d="m165.17 127.838a7.471 7.471 0 0 1 -2.914-2.914 8.871 8.871 0 0 1 -1.093-4.553 9.352 9.352 0 0 1 1.093-4.553 8.415 8.415 0 0 1 3.1-3.1 9.352 9.352 0 0 1 4.553-1.093 14.056 14.056 0 0 1 2.732.364 6.9 6.9 0 0 1 2.359 1.099 2.372 2.372 0 0 1 .728 3.278c-.182.182-.182.364-.546.546s-.546 0-.911 0a10.266 10.266 0 0 1 -2.185-.728 5.344 5.344 0 0 0 -1.821-.546 4.752 4.752 0 0 0 -3.1 1.275 4.909 4.909 0 0 0 -.911 3.46 6.032 6.032 0 0 0 .911 3.46 3.962 3.962 0 0 0 2.914 1.275 6.47 6.47 0 0 0 1.821-.364c.546-.182.911-.364 1.457-.546a1.872 1.872 0 0 1 2.185.182 1.962 1.962 0 0 1 .364 1.457 1.828 1.828 0 0 1 -1.093 1.821 17.757 17.757 0 0 1 -2.549 1.093 8.519 8.519 0 0 1 -2.914.364 11.207 11.207 0 0 1 -4.18-1.277z"/><path d="m181.924 127.838a7.946 7.946 0 0 1 -3.1-2.914 10.031 10.031 0 0 1 0-9.105 6.879 6.879 0 0 1 3.1-2.914 10.031 10.031 0 0 1 9.105 0 7.946 7.946 0 0 1 3.1 2.914 10.031 10.031 0 0 1 0 9.105 6.879 6.879 0 0 1 -3.1 2.914 10.031 10.031 0 0 1 -9.105 0zm8.195-7.466a5.628 5.628 0 0 0 -.911-3.46 3.2 3.2 0 0 0 -2.732-1.093c-2.367 0-3.642 1.639-3.642 4.735s1.275 4.735 3.642 4.735c2.55-.182 3.643-1.821 3.643-4.917z"/><path d="m212.882 113.634a8.308 8.308 0 0 1 1.457 5.281v7.648a2.338 2.338 0 0 1 -.728 1.821 3.076 3.076 0 0 1 -1.821.546 2.719 2.719 0 0 1 -1.821-.546 2.427 2.427 0 0 1 -.728-1.821v-7.463a3.756 3.756 0 0 0 -.546-2.367 2.269 2.269 0 0 0 -2-.728 3.306 3.306 0 0 0 -2.549 1.093 4.473 4.473 0 0 0 -.911 2.732v7.1a2.338 2.338 0 0 1 -.728 1.821 3.308 3.308 0 0 1 -3.642 0 1.918 1.918 0 0 1 -.728-1.821v-12.2a1.775 1.775 0 0 1 .728-1.639 3.076 3.076 0 0 1 1.821-.546 2.226 2.226 0 0 1 1.639.546 2.308 2.308 0 0 1 .728 1.639v.546c0-.364.546-.911.911-1.093a3.81 3.81 0 0 1 1.093-.728c2.18-1.278 6.004-2.006 7.825.179z"/><path d="m220.895 128.567c-.182 0-.546-.182-.728-.182a6.731 6.731 0 0 1 -2-.911c-.364-.182-.546-.546-.728-.728a2.31 2.31 0 0 1 -.182-1.093 2.632 2.632 0 0 1 .364-1.275 1.574 1.574 0 0 1 1.093-.546 1.642 1.642 0 0 1 .911.182c.364.182.546.182.911.364a7.611 7.611 0 0 0 1.821.728 7.5 7.5 0 0 0 2.185.182 4.57 4.57 0 0 0 1.821-.364 1.21 1.21 0 0 0 .728-.911.946.946 0 0 0 -.364-.728 2.965 2.965 0 0 0 -1.093-.546 15.611 15.611 0 0 0 -2.367-.546 9.956 9.956 0 0 1 -4.371-1.639 3.751 3.751 0 0 1 -1.275-3.1 4.718 4.718 0 0 1 3.1-4.371 7.143 7.143 0 0 1 3.278-.728 8.112 8.112 0 0 1 4.188.546c1.275.364 2.732 1.275 2.732 2.732a2.632 2.632 0 0 1 -.364 1.275 1.574 1.574 0 0 1 -1.093.546c-1.093 0-2-.728-3.1-1.093a5.615 5.615 0 0 0 -3.46 0c-.364.182-.728.364-.728.728a.665.665 0 0 0 .364.911c.364.364.911.364 1.457.546s1.093.182 1.639.364a19.636 19.636 0 0 1 3.46 1.093 3.257 3.257 0 0 1 1.821 1.639 4.556 4.556 0 0 1 .546 2.367 4.509 4.509 0 0 1 -2 3.824 7.211 7.211 0 0 1 -3.46 1.275 16.238 16.238 0 0 1 -5.106-.541z"/></g></g></svg>