<svg height="790" viewBox="0 0 1920 790" width="1920" xmlns="http://www.w3.org/2000/svg" xmlns:xlink="http://www.w3.org/1999/xlink"><clipPath id="a"><path d="m0 4513h1920v790h-1920z"/></clipPath><g transform="translate(0 -4513)"><path d="m0 4513h1920v790h-1920z" fill="#f5f7fc"/><g clip-path="url(#a)"><path d="m3981.267 4805.539s-79.229-163.01-200.441-125.714-114.331 37.443-183.083-126.374-225.255 43.5-307.305-64.658c-1.865 0 3.847 316.14 3.847 316.14z" fill="none" stroke="#eef3ff" stroke-width="4" transform="translate(-3299.391 507.903)"/><path d="m3921.229 4790.189s-72.075-140.308-183-106.176-132.829 24.08-195.748-125.837-203.193 40.021-278.282-58.961c-1.706 0 0 290.975 0 290.975z" fill="#eef3ff" transform="translate(-3269.996 524.689)"/><path d="m3290.064 4487.645s66.381 136.575 167.936 105.327 95.79-31.371 153.393 105.88 188.726-36.446 257.47 54.172c1.562 0-3.223-264.872-3.223-264.872z" fill="none" stroke="#eef3ff" stroke-width="4" transform="translate(-1922.391 26.106)"/><path d="m3263.438 4498s60.387 117.555 153.326 88.958 111.288-20.175 164 105.431 170.241-33.53 233.154 49.4c1.43 0 0-243.788 0-243.788z" fill="#eef3ff" transform="translate(-1870.093 14.547)"/></g></g></svg>