<svg height="52" viewBox="0 0 166 52" width="166" xmlns="http://www.w3.org/2000/svg"><g fill="#ff6b6b"><path d="m71.166 64.626-9.75 16.841c-2.881-5.1-3.1-10.636-.443-14.625 3.1-4.432 9.085-5.983 15.733-4.653-10.193-3.767-20.165-1.994-24.818 4.875-4.432 6.647-2.66 16.176 3.988 23.936l-9.528 16.4h49.414l-3.1-5.318a17.633 17.633 0 0 0 4.653-4.432c3.324-5.1 3.1-11.966-.443-18.392a13.349 13.349 0 0 1 -.886 11.3 11.746 11.746 0 0 1 -7.312 4.653l-5.321-9.311zm-7.312-2.659a12.106 12.106 0 0 0 -4.21 3.989 5.282 5.282 0 0 0 -1.33 2.437c-1.551 4.21-.886 8.642.886 12.631a32.585 32.585 0 0 0 9.971 11.3 30.2 30.2 0 0 0 14.182 4.876c4.432.222 8.864-.665 11.966-3.767.886-.443 1.33-1.33 1.994-1.994l.665-1.33a11.725 11.725 0 0 1 -1.994 6.648 19.978 19.978 0 0 1 -1.994 2.216c-3.324 3.1-8.2 4.21-12.852 3.767a31.866 31.866 0 0 1 -16.4-5.761 35.092 35.092 0 0 1 -11.738-13.079c-1.773-4.21-2.659-9.085-1.108-13.517a6.656 6.656 0 0 1 1.33-2.437 8.676 8.676 0 0 1 1.773-2.216 16 16 0 0 1 8.858-3.763zm7.312 14.625 10.858 18.835a13.627 13.627 0 0 0 3.1.222l-4.653-7.977-9.305-16.172-7.756 13.069a19.377 19.377 0 0 0 1.773 2.216zm5.983 27.255a36.588 36.588 0 0 1 -7.977-2.437h-12.41l3.324-5.761a14.336 14.336 0 0 1 -1.773-1.994l-5.983 10.193z" fill-rule="evenodd" transform="translate(-46.348 -60.25)"/><text font-family="Muli-Bold, Muli" font-size="25" font-weight="700" letter-spacing="-.048em" transform="translate(58 46)"><tspan x="0" y="0">ClassiList</tspan></text></g></svg>