<svg height="55" viewBox="0 0 55 55" width="55" xmlns="http://www.w3.org/2000/svg" xmlns:xlink="http://www.w3.org/1999/xlink"><clipPath id="a"><path d="m665 5745h55v55h-55z"/></clipPath><g clip-path="url(#a)" fill="#ff6b6b" transform="translate(-665 -5745)"><path d="m21.913 23.6h-18.371a15.138 15.138 0 0 1 15-13.485h1.686v-3.372h-1.686a18.563 18.563 0 0 0 -18.542 18.542v20.228a1.685 1.685 0 0 0 1.686 1.687h20.227a1.685 1.685 0 0 0 1.687-1.687v-20.228a1.685 1.685 0 0 0 -1.687-1.685zm-1.685 20.227h-16.857v-16.857h16.857z" transform="translate(665 5745.529)"/><path d="m52.255 23.6h-18.372a15.138 15.138 0 0 1 15-13.485h1.687v-3.372h-1.686a18.563 18.563 0 0 0 -18.542 18.542v20.228a1.685 1.685 0 0 0 1.685 1.687h20.228a1.685 1.685 0 0 0 1.686-1.686v-20.229a1.685 1.685 0 0 0 -1.686-1.685zm-1.685 20.227h-16.857v-16.857h16.857z" transform="translate(666.059 5745.529)"/></g></svg>