<?xml version="1.0" ?><svg id="Layer_1" style="enable-background:new 0 0 32 32;" version="1.1" viewBox="0 0 32 32" xml:space="preserve" xmlns="http://www.w3.org/2000/svg" xmlns:xlink="http://www.w3.org/1999/xlink"><style type="text/css">
	.st0{fill:url(#SVGID_1_);}
	.st1{fill:#FFFFFF;}
</style><linearGradient gradientTransform="matrix(1 0 0 -1 0 32)" gradientUnits="userSpaceOnUse" id="SVGID_1_" x1="5.8035" x2="26.1965" y1="-1.6608" y2="33.6608"><stop offset="0" style="stop-color:#FEC053"/><stop offset="0.327" style="stop-color:#F2203E"/><stop offset="0.648" style="stop-color:#B729A8"/><stop offset="1" style="stop-color:#5342D6"/></linearGradient><path class="st0" d="M4,0h24c2.2,0,4,1.8,4,4v24c0,2.2-1.8,4-4,4H4c-2.2,0-4-1.8-4-4V4C0,1.8,1.8,0,4,0z"/><path class="st1" d="M21.2,5H10.8C7.6,5,5,7.7,5,10.9v10.2c0,3.2,2.6,5.9,5.8,5.9h10.4c3.2,0,5.8-2.7,5.8-5.9V10.9  C27,7.7,24.4,5,21.2,5z M25,20.9c0,2.2-1.8,4.1-4,4.1H11c-2.2,0-4-1.9-4-4.1v-9.9C7,8.8,8.7,7,11,7h10c2.2,0,4,1.9,4,4.1L25,20.9z"/><path class="st1" d="M16,10.4c-3.1-0.1-5.7,2.4-5.8,5.5c-0.1,3.1,2.4,5.7,5.5,5.8c3.1,0.1,5.7-2.4,5.8-5.5c0,0,0-0.1,0-0.1  C21.6,12.9,19.1,10.4,16,10.4z M16,19.6c-2,0-3.7-1.6-3.7-3.6s1.6-3.7,3.6-3.7c2,0,3.7,1.6,3.7,3.6c0,0,0,0.1,0,0.1  C19.6,18,18,19.6,16,19.6z"/><ellipse class="st1" cx="21.8" cy="10" rx="1.2" ry="1.3"/></svg>