<svg height="95" viewBox="0 0 230 95" width="230" xmlns="http://www.w3.org/2000/svg" xmlns:xlink="http://www.w3.org/1999/xlink"><clipPath id="a"><path d="m1315 946h230v95h-230z"/></clipPath><g clip-path="url(#a)" transform="translate(-1315 -946)"><g transform="translate(1315 947.5)"><path d="m0 0h230v92h-230z" fill="#fff"/><g fill="#2c2939"><path d="m74.318 44.77v8.36a7.383 7.383 0 0 1 -1.628 1.237 9 9 0 0 1 -1.84.775 10.936 10.936 0 0 1 -2 .389 20.45 20.45 0 0 1 -2.1.106 9.938 9.938 0 0 1 -3.965-.791 10.5 10.5 0 0 1 -3.248-2.176 10.237 10.237 0 0 1 -2.192-3.232 9.89 9.89 0 0 1 -.8-3.97 10.042 10.042 0 0 1 1.38-5.138 10.431 10.431 0 0 1 1.61-2.07 10.2 10.2 0 0 1 4.508-2.611 10.055 10.055 0 0 1 2.709-.361 9.52 9.52 0 0 1 2.185.251 10.15 10.15 0 0 1 2.07.725 11.756 11.756 0 0 1 1.893 1.15 12.4 12.4 0 0 1 1.686 1.5l-.837.849a2.566 2.566 0 0 1 -3.3.35 6.742 6.742 0 0 0 -1.72-.851 6.279 6.279 0 0 0 -1.969-.306 6.355 6.355 0 0 0 -2.53.515 6.629 6.629 0 0 0 -3.517 3.457 6.235 6.235 0 0 0 -.522 2.53 6.127 6.127 0 0 0 .543 2.569 6.76 6.76 0 0 0 6.166 3.967 10.84 10.84 0 0 0 1.322-.113 10.181 10.181 0 0 0 1.226-.262 4.786 4.786 0 0 0 1.2-.515v-2.804l-1.15-.021a2.378 2.378 0 0 1 -1-.216 1.532 1.532 0 0 1 -.7-.7 3.174 3.174 0 0 1 -.264-1.467v-1.12z"/><path d="m83.966 55.451h-3.648v-19.951h7.491a6.176 6.176 0 0 1 2.627.543 6.323 6.323 0 0 1 2.01 1.442 6.509 6.509 0 0 1 1.295 2.038 6.277 6.277 0 0 1 .23 4.066 6.092 6.092 0 0 1 -.69 1.573 6.573 6.573 0 0 1 -2.661 2.408q1.463 1.994 2.91 3.949t2.926 3.933h-2.867a2.234 2.234 0 0 1 -.69-.126 3.379 3.379 0 0 1 -.814-.4 6.067 6.067 0 0 1 -.879-.69 6.824 6.824 0 0 1 -.883-1.06l-3.634-4.9h-2.723zm3.956-10.851a2.383 2.383 0 0 0 1.007-.23 2.636 2.636 0 0 0 .837-.6 2.861 2.861 0 0 0 .564-.869 2.608 2.608 0 0 0 .209-1.021 2.673 2.673 0 0 0 -.209-1.04 2.919 2.919 0 0 0 -.563-.869 2.663 2.663 0 0 0 -.837-.6 2.348 2.348 0 0 0 -1.007-.23h-3.957v5.449z"/><path d="m106.078 35.5h3.3l8.722 19.951h-2.27a2.622 2.622 0 0 1 -1.419-.4 2.5 2.5 0 0 1 -.961-1.115l-1.184-2.7h-9.066l-1.168 2.7a2.227 2.227 0 0 1 -.391.614 2.705 2.705 0 0 1 -.57.478 2.673 2.673 0 0 1 -.69.313 2.514 2.514 0 0 1 -.745.113h-2.27zm-1.267 12.07h5.835l-2.6-6.042a3.43 3.43 0 0 1 -.244-.766c-.041-.23-.069-.409-.078-.529a4.6 4.6 0 0 1 -.083.536 4.045 4.045 0 0 1 -.23.759z"/><path d="m128.57 55.451h-3.67v-8.451a1.61 1.61 0 0 0 -.193-.793 8.63 8.63 0 0 0 -.515-.793l-7.322-9.914h2.8a3.487 3.487 0 0 1 1.621.361 3.089 3.089 0 0 1 1.164 1.044l3.94 5.334a1.554 1.554 0 0 1 .253.515c.046.175.071.288.08.333a2.088 2.088 0 0 1 .078-.327 1.516 1.516 0 0 1 .271-.522l3.923-5.321a2.99 2.99 0 0 1 1.164-1.065 3.544 3.544 0 0 1 1.621-.354h2.831l-7.344 9.927c-.11.15-.209.285-.29.412a4.069 4.069 0 0 0 -.23.368 1.637 1.637 0 0 0 -.145.377 1.61 1.61 0 0 0 -.048.416z"/><path d="m156.692 45.871v7.684a6.4 6.4 0 0 1 -1.5 1.04 9.079 9.079 0 0 1 -1.755.656 12.19 12.19 0 0 1 -1.937.333c-.667.06-1.345.09-2.031.09a9.869 9.869 0 0 1 -3.97-.8 10.35 10.35 0 0 1 -3.243-2.185 10.185 10.185 0 0 1 .009-14.433 10.214 10.214 0 0 1 11.1-2.226 10.26 10.26 0 0 1 3.195 2.109l-.138.126a1.907 1.907 0 0 1 -.563.4 1.672 1.672 0 0 1 -.676.131 1.536 1.536 0 0 1 -.892-.278 8.768 8.768 0 0 0 -2.24-1.106 8.229 8.229 0 0 0 -2.576-.4 8.361 8.361 0 0 0 -2.249.3 8.128 8.128 0 0 0 -2.017.856 8.816 8.816 0 0 0 -1.716 1.323 8.28 8.28 0 0 0 -1.322 1.713 8.739 8.739 0 0 0 -.856 2.026 8.167 8.167 0 0 0 -.306 2.247 8.016 8.016 0 0 0 .313 2.249 8.526 8.526 0 0 0 2.243 3.737 8.864 8.864 0 0 0 1.746 1.325 8.569 8.569 0 0 0 2.056.856 8.482 8.482 0 0 0 2.261.3 10.2 10.2 0 0 0 2.8-.382 9.809 9.809 0 0 0 2.562-1.15v-4.8h-1.769a1.647 1.647 0 0 1 -1.221-.512 1.67 1.67 0 0 1 -.334-.536 1.782 1.782 0 0 1 -.117-.642v-.055z"/><path d="m164.436 55.451h-1.736v-19.951h6.99a5.472 5.472 0 0 1 2.187.437 5.665 5.665 0 0 1 1.773 1.2 5.6 5.6 0 0 1 1.2 1.776 5.419 5.419 0 0 1 .439 2.171 5.8 5.8 0 0 1 -.35 1.992 6.051 6.051 0 0 1 -.959 1.727 5.2 5.2 0 0 1 -1.477 1.26 4.791 4.791 0 0 1 -1.879.6l6.6 8.786h-.824a2.345 2.345 0 0 1 -2.12-1.049l-5.807-7.73h-4.036zm0-18.214v7.687h5.249a3.777 3.777 0 0 0 1.5-.3 3.871 3.871 0 0 0 1.226-.823 3.938 3.938 0 0 0 .828-1.224 3.694 3.694 0 0 0 .306-1.5 3.644 3.644 0 0 0 -.306-1.488 3.924 3.924 0 0 0 -2.054-2.049 3.7 3.7 0 0 0 -1.5-.306z"/><path d="m183.6 55.451h-1.741v-19.951h1.741z"/><path d="m190.32 55.451v-19.951h7.339a9.814 9.814 0 0 1 5.03 1.364 10.175 10.175 0 0 1 3.588 3.586 9.927 9.927 0 0 1 0 10.067 10.24 10.24 0 0 1 -1.566 2.019 9.945 9.945 0 0 1 -4.4 2.56 9.736 9.736 0 0 1 -2.652.356zm7.339-1.741a8.022 8.022 0 0 0 3.22-.646 8.421 8.421 0 0 0 2.621-1.764 8.226 8.226 0 0 0 0-11.647 8.4 8.4 0 0 0 -2.617-1.769 8.022 8.022 0 0 0 -3.22-.649h-5.6v16.475z"/><path d="m220.3 38.113c-.214-.147-.4-.288-.563-.416a2.847 2.847 0 0 0 -1.15-.557 4.14 4.14 0 0 0 -.92-.083 4.322 4.322 0 0 0 -1.532.271 4.391 4.391 0 0 0 -1.274.731 3.5 3.5 0 0 0 -.869 1.072 2.746 2.746 0 0 0 -.32 1.295 3.451 3.451 0 0 0 .2 1.281 2.157 2.157 0 0 0 .69.883 5.232 5.232 0 0 0 1.267.711q.787.327 1.944.731.614.23 1.15.419c.352.129.69.262 1 .4a9.282 9.282 0 0 1 .883.43 6.569 6.569 0 0 1 .787.522 4.069 4.069 0 0 1 1.38 1.84 6.9 6.9 0 0 1 .4 2.383 5.255 5.255 0 0 1 -.515 2.353 5.375 5.375 0 0 1 -1.391 1.776 6.21 6.21 0 0 1 -2.054 1.12 7.905 7.905 0 0 1 -2.523.389 6.46 6.46 0 0 1 -4.386-1.546 7.608 7.608 0 0 1 -.828-.883 7.127 7.127 0 0 1 -.55-.8l.207-.124a1.782 1.782 0 0 1 .879-.265 2.249 2.249 0 0 1 .639.09 1.279 1.279 0 0 1 .545.329 6.9 6.9 0 0 0 1.037.814 4.281 4.281 0 0 0 .876.419 3.418 3.418 0 0 0 .794.159q.382.028.787.041a5.888 5.888 0 0 0 1.677-.189 4.489 4.489 0 0 0 1.518-.69 3.767 3.767 0 0 0 1.1-1.219 3.475 3.475 0 0 0 .425-1.766 4.262 4.262 0 0 0 -.333-1.84 2.99 2.99 0 0 0 -.92-1.12 5.416 5.416 0 0 0 -1.4-.718q-.807-.288-1.741-.649c-.789-.315-1.509-.609-2.157-.876a6.872 6.872 0 0 1 -1.663-.954 3.781 3.781 0 0 1 -1.074-1.357 4.9 4.9 0 0 1 -.382-2.088 4.37 4.37 0 0 1 .515-2.116 5.487 5.487 0 0 1 1.329-1.624 6.146 6.146 0 0 1 1.84-1.044 6.081 6.081 0 0 1 2.054-.368 5.2 5.2 0 0 1 1.6.23 6.141 6.141 0 0 1 1.306.584 6.426 6.426 0 0 1 1.074.8q.478.446.883.879l-.432.306a1.506 1.506 0 0 1 -.382.2 1.589 1.589 0 0 1 -.524.076 1.61 1.61 0 0 1 -.9-.237z"/><circle cx="20.226" cy="20.226" r="20.226" transform="matrix(.127 -.992 .992 .127 3.789 62.86)"/></g><path d="m27.34 45.473v1.939h4.246v3.243h-4.216v-.012c-.113 0-.23.012-.343.012a4.669 4.669 0 0 1 -1.827-.365 4.733 4.733 0 0 1 -2.07-1.7 4.683 4.683 0 0 1 6.852-6.24h8.28c-.106-.331-.23-.658-.361-.975a11.81 11.81 0 1 0 -10.879 16.4h11.73v-12.306zm4.246 10.35h-3.91c-.147 0-.3.016-.46.018h-.34a9.869 9.869 0 1 1 8.294-15.426h-4.55a6.624 6.624 0 1 0 -3.595 12.19h4.561zm5.249.018h-3.308l.018-.011h-.018v-3.22h3.307zm0-5.182h-3.308v-3.242h3.307z" fill="#262626"/><path d="m26.767 44.861v1.939h4.248v3.243h-4.22v-.012c-.113 0-.23.012-.34.012a4.69 4.69 0 1 1 1.822-9.014 4.717 4.717 0 0 1 1.15.69h8.28c-.108-.331-.23-.658-.361-.975a11.81 11.81 0 1 0 -10.9 16.424h11.734v-12.318zm4.248 10.35h-3.91c-.15 0-.3.016-.46.018h-.333a9.869 9.869 0 1 1 8.28-15.429h-4.545a6.624 6.624 0 1 0 -3.6 12.176h4.561zm5.249.018h-3.307l.016-.011h-.016v-3.238h3.307zm0-5.182h-3.307v-3.242h3.307z" fill="#fff"/><g fill="#999"><path d="m31.016 51.982h1.941v.918h-1.941z"/><path d="m29.445 46.8h1.571v.922h1.939v-.922h1.424z"/></g></g></g></svg>