<svg height="95" viewBox="0 0 231 95" width="231" xmlns="http://www.w3.org/2000/svg" xmlns:xlink="http://www.w3.org/1999/xlink"><clipPath id="a"><path d="m689 946h231v95h-231z"/></clipPath><g clip-path="url(#a)" transform="translate(-689 -946)"><g fill="#2c2939" transform="translate(680.523 959.592)"><path d="m69.936 48.829v-28.729h11.1q5.266 0 8.139 2.5a8.949 8.949 0 0 1 2.873 7.128 8.911 8.911 0 0 1 -2.874 7.118q-2.874 2.492-8.144 2.492h-5.751v9.484zm5.344-14.129h5.343q3.518 0 4.8-1.256a4.967 4.967 0 0 0 1.277-3.708 4.843 4.843 0 0 0 -1.292-3.664q-1.292-1.236-4.791-1.235h-5.338z"/><path d="m93.188 41.806a7.082 7.082 0 0 1 .131-1.335 6.343 6.343 0 0 1 .688-1.714 5.969 5.969 0 0 1 1.518-1.808 8.306 8.306 0 0 1 2.839-1.336 15.7 15.7 0 0 1 4.434-.557 27.9 27.9 0 0 1 3.9.294q0-4.1-4.7-4.1a17.719 17.719 0 0 0 -6.522 1.093v-4.243a20.258 20.258 0 0 1 6.824-1.1q4.751 0 7.268 2.345t2.516 6.782v5.8a6.656 6.656 0 0 1 -.585 2.785 6.844 6.844 0 0 1 -1.7 2.314q-2.289 2.134-7.039 2.134-4.913 0-7.241-2.145a6.939 6.939 0 0 1 -1.74-2.366 6.743 6.743 0 0 1 -.591-2.843zm5.344-.652q0 3.449 4.18 3.449h.044q3.986 0 3.985-3.26v-2.712a27.578 27.578 0 0 0 -3.184-.273q-5 0-5.027 2.8z"/><path d="m114.615 38.032a14.637 14.637 0 0 1 .76-4.957 9.321 9.321 0 0 1 1.8-3.231 8.367 8.367 0 0 1 2.466-1.81 9.091 9.091 0 0 1 2.487-.863 13.581 13.581 0 0 1 2.129-.171q4.67 0 6.874 2.06a6.711 6.711 0 0 1 1.651 2.276 6.516 6.516 0 0 1 .553 2.729v15.29a9.4 9.4 0 0 1 -.2 1.955 7.593 7.593 0 0 1 -.824 2.06 6.235 6.235 0 0 1 -1.672 1.935 9.068 9.068 0 0 1 -2.932 1.356 15.561 15.561 0 0 1 -4.387.557 22.356 22.356 0 0 1 -6.409-.862v-4.646a18.79 18.79 0 0 0 5.8.862 14.005 14.005 0 0 0 3.04-.27 2.636 2.636 0 0 0 1.6-.85 3.224 3.224 0 0 0 .532-.985 4.481 4.481 0 0 0 .111-1.108v-1.159a19.486 19.486 0 0 1 -3.366.359q-4.843 0-7.428-2.715t-2.585-7.812zm5.343.094q0 3.6 1.194 4.894a4.744 4.744 0 0 0 3.649 1.288 17.266 17.266 0 0 0 3.192-.294v-9.975q0-2.389-3.671-2.389h-.065a3.718 3.718 0 0 0 -3.215 1.5q-1.086 1.496-1.084 4.976z"/><path d="m136.346 38.315a13.208 13.208 0 0 1 2.379-8.264q2.378-3.091 7.548-3.091 4.886 0 7.4 3.007a11.162 11.162 0 0 1 2.508 7.4q0 1.809-.088 2.671h-14.4q.216 2.8 1.726 3.743a7.291 7.291 0 0 0 3.921.946 18.041 18.041 0 0 0 7.557-1.661v4.164a17.734 17.734 0 0 1 -8.362 1.935 15.915 15.915 0 0 1 -2.779-.231 9.306 9.306 0 0 1 -2.7-.967 8.434 8.434 0 0 1 -2.406-1.872 8.742 8.742 0 0 1 -1.653-3.144 15.149 15.149 0 0 1 -.651-4.636zm5.345-1.85h8.948a7.283 7.283 0 0 0 -1.357-3.734 3.629 3.629 0 0 0 -1.369-1.149 3.762 3.762 0 0 0 -1.77-.374 3.977 3.977 0 0 0 -3.115 1.241 6.755 6.755 0 0 0 -1.337 4.016z"/><path d="m160.032 48.829v-28.729h10.686a16.482 16.482 0 0 1 3.779.409 11.734 11.734 0 0 1 3.247 1.29 6.211 6.211 0 0 1 2.378 2.517 8.124 8.124 0 0 1 .87 3.859 5.857 5.857 0 0 1 -3.519 5.573q5.169 1.8 5.169 6.623a10.833 10.833 0 0 1 -.207 2.172 7.492 7.492 0 0 1 -.911 2.224 6.789 6.789 0 0 1 -1.846 2.056 9.973 9.973 0 0 1 -3.161 1.422 17.24 17.24 0 0 1 -4.734.58zm5.345-17.012h5.647q4.625 0 4.625-3.469 0-3.807-5.016-3.807h-5.256zm0 12.449h6.146q5.778 0 5.777-4.163 0-3.723-5.972-3.723h-5.951z"/><path d="m185.934 39.093v-11.755h5.345v12.418a5.238 5.238 0 0 0 1.089 3.713 4.753 4.753 0 0 0 3.549 1.133 4.82 4.82 0 0 0 3.591-1.133 5.248 5.248 0 0 0 1.089-3.713v-12.418h5.343v11.755a10.05 10.05 0 0 1 -2.65 7.4 11.484 11.484 0 0 1 -14.725 0 10.1 10.1 0 0 1 -2.631-7.4z"/><path d="m210.293 48.83v-29.671h5.344v29.671z"/><path d="m220.212 41.922v-22.849h5.343v8.264a21.06 21.06 0 0 1 3.645-.337q4.953 0 7.612 2.791t2.66 8.038a15.246 15.246 0 0 1 -.779 5.088 9.557 9.557 0 0 1 -1.838 3.339 8.472 8.472 0 0 1 -2.541 1.854 9.387 9.387 0 0 1 -2.573.885 14.373 14.373 0 0 1 -2.195.168q-4.757 0-7.048-2.127a6.846 6.846 0 0 1 -1.709-2.322 6.646 6.646 0 0 1 -.577-2.792zm5.343.487q0 2.32 4 2.32a3.828 3.828 0 0 0 3.561-1.677q1.02-1.677 1.02-5.5 0-3.628-1.313-5.073a4.894 4.894 0 0 0 -3.813-1.445 14.927 14.927 0 0 0 -3.452.358z"/><path d="m38.548 57.827a8.354 8.354 0 0 0 .77-3.5h-17.18a8.349 8.349 0 0 0 .77 3.5z"/><path d="m23.49 59.643a8.524 8.524 0 0 0 3.11 2.886 8.662 8.662 0 0 0 8.263 0 8.524 8.524 0 0 0 3.107-2.886z"/><path d="m41.168 25.468h-20.878v11.99h20.878zm-2.463 9.919h-16.089v-7.929h16.09v7.929z"/><path d="m40.029 21.467h-18.599a1.138 1.138 0 0 0 -.8.33 1.127 1.127 0 0 0 -.248.368 1.114 1.114 0 0 0 -.086.434v1.061h20.875v-1.06a1.134 1.134 0 0 0 -.7-1.048 1.139 1.139 0 0 0 -.442-.085z"/><path d="m41.168 39.262h-20.878v8.886h20.878zm-2.462 7.068h-16.182v-1.814h16.181zm-16.182-3.448v-1.817h16.181v1.816z"/><path d="m36.867 29.275h-12.412v4.3h12.412z"/><path d="m30.73 4.239a22.448 22.448 0 0 0 -11.262 3.013 22.085 22.085 0 0 0 -8.166 8.23 21.715 21.715 0 0 0 .483 22.231l.029.047q.231.364.475.722l6.163 9.418v-25.3a2.91 2.91 0 0 1 .226-1.127 2.942 2.942 0 0 1 .645-.956 3 3 0 0 1 2.108-.864h18.6a3 3 0 0 1 2.108.864 2.942 2.942 0 0 1 .645.956 2.91 2.91 0 0 1 .226 1.127v25.506l6.414-10c.068-.1.133-.2.2-.31l.051-.082a21.718 21.718 0 0 0 .48-22.229 22.088 22.088 0 0 0 -8.164-8.23 22.45 22.45 0 0 0 -11.26-3.015z"/></g></g></svg>