<svg fill="none" height="95" viewBox="0 0 231 95" width="231" xmlns="http://www.w3.org/2000/svg"><g fill="#2c2939"><path d="m212.629 54.148 18.258-22.019h-8.963l-16.37 19.738v-.126l-7.418 8.994-1.614 1.957c-.046.078-.091.158-.139.236l-2.783 3.348c-.515.4699-1.061.9042-1.635 1.3-2.508 1.7263-5.482 2.6485-8.527 2.644v.115c-2.035.0004-4.049-.4129-5.92-1.215-2.735-1.1829-5.068-3.1337-6.716-5.616-2.271-3.4099-3.111-7.5756-2.338-11.5989.772-4.0234 3.094-7.5822 6.466-9.9091 2.583-1.7706 5.653-2.6935 8.784-2.6406 3.131.0528 6.167 1.0788 8.689 2.9356l4.022-5.636c-3.067-2.2614-6.671-3.6819-10.456-4.1204s-7.619.1201-11.121 1.6204c-3.962 1.7105-7.342 4.5353-9.728 8.131-2.472 3.7207-3.787 8.0901-3.778 12.557 0 .077.006.154.006.232h-.12c.007 2.5272-.602 5.0182-1.774 7.2571s-2.873 4.1583-4.954 5.5919c-2.096 1.4373-4.521 2.3218-7.051 2.5713-2.529.2494-5.08-.1442-7.417-1.1443-2.736-1.1822-5.069-3.1332-6.717-5.616-.778-1.1709-1.393-2.4418-1.829-3.778-.284-.141-.59-.3-.915-.475-1.878-.9872-3.605-2.239-5.128-3.717-.673-.684-1.276-1.359-1.817-2.012.036.436.056.877.056 1.325.007 2.5271-.602 5.0179-1.774 7.2565-1.173 2.2386-2.873 4.1575-4.955 5.5905-2.096 1.4373-4.521 2.3217-7.05 2.5711-2.529.2495-5.081-.1441-7.417-1.1441-2.7353-1.1816-5.0683-3.1328-6.715-5.616-2.2701-3.41-3.1094-7.5755-2.337-11.5985.7724-4.0231 3.0945-7.5816 6.466-9.9085 2.096-1.4367 4.521-2.3208 7.05-2.5703s5.08.1438 7.417 1.1433c2.735 1.1822 5.068 3.1332 6.716 5.616.037.056.072.113.108.17h.011l.01.026s0 .01.006.016c.063.1.122.2.183.3.154.351.46 1.017.945 1.886l.153.27c.04.1.084.19.121.288.529.871 1.107 1.7113 1.731 2.517.039.051.074.1.114.15.67.8739 1.398 1.7015 2.179 2.477l.014.016c.007.007.013.012.019.019.132.131.265.26.4.389l.162.149c.915.8505 1.906 1.6154 2.961 2.285 1.312.8315 2.726 1.4906 4.207 1.961 1.646.5189 3.359.7948 5.085.819h.464c2.684.0256 5.353-.4142 7.887-1.3 1.65-.5884 3.213-1.3956 4.648-2.4 1.903-1.346 3.563-3.0064 4.909-4.91 1.148-1.6275 2.094-3.388 2.818-5.243.488-1.1954.746-2.472.762-3.763.001-.6741-.08-1.3458-.243-2-.253-1.0051-.701-1.9509-1.317-2.784-.675-.904-1.515-1.6719-2.476-2.263-.452-.2854-.932-.5253-1.432-.716l-.012.039c-2.817-1.3661-5.895-2.111-9.025-2.1843s-6.239.5267-9.117 1.7593c-2.576 1.1099-4.917 2.6991-6.9 4.683v-21.566h-6.856v18.783c.419.407.854.849 1.306 1.331 1.474 1.6132 2.763 3.3858 3.844 5.285.873 1.5935 1.89 3.1032 3.04 4.51.182.209.375.415.577.619 1.174-2.3313 2.917-4.3286 5.068-5.807 2.358-1.6168 5.126-2.5302 7.983-2.6336s5.685.6074 8.153 2.0496l.027-.048c.136.1038.256.2275.355.367.05.0717.09.1506.117.234.034.111.051.2268.048.343-.016.4059-.108.8052-.272 1.177-.457 1.1716-1.037 2.2918-1.729 3.342-.556.8414-1.199 1.6226-1.917 2.331-1.169 1.1517-2.553 2.0638-4.072 2.685-1.963.7749-4.059 1.1545-6.169 1.117h-.352c-.96-.0132-1.914-.151-2.839-.41-1.447-.4188-2.799-1.1139-3.982-2.047-.399-.31-.781-.6412-1.145-.992-.001-.003-.001-.0061 0-.009-.173-.162-.339-.326-.5-.489-.859-.9042-1.627-1.8914-2.291-2.947-.434-.688-.88-1.262-1.082-1.67-.1-.2-.3-.523-.3-.523-1.063-1.8991-2.338-3.6715-3.8-5.283-.022-.024-.045-.044-.065-.068-.875-.842-1.816-1.6112-2.816-2.3-3.039-2.0848-6.555-3.3678-10.222-3.7297s-7.367.209-10.754 1.6597c-3.9616 1.7107-7.3409 4.5355-9.727 8.131-3.2916 4.9408-4.5104 10.9769-3.3939 16.8078s4.479 10.9898 9.3629 14.3652c3.0383 2.0862 6.555 3.3701 10.223 3.7322s7.367-.2094 10.755-1.6612c3.962-1.7103 7.341-4.5348 9.727-8.13.149-.226.3-.454.437-.685 1.639 2.6708 3.819 4.9686 6.4 6.745 3.038 2.0861 6.555 3.3699 10.223 3.732s7.367-.2093 10.755-1.661c3.961-1.7105 7.34-4.535 9.725-8.13.166-.248.326-.5003.48-.757 1.628 2.6041 3.775 4.8455 6.306 6.585 3.038 2.0857 6.554 3.3693 10.221 3.7314 3.668.362 7.367-.2091 10.754-1.6604 2.459-1.0579 4.706-2.5542 6.63-4.416v6.269h6.858v-14.707l2.573-3.1 14.079 17.809h8.799zm-7.075-36.64h-6.854v37.229c0 .9883-.093 1.9745-.28 2.945l7.138-8.653z"/><path d="m39.292 33.476v18.249c0 8.5-5.14 13.634-12.932 13.634s-13.26-5.134-13.26-13.634v-34.254h-13.1v34.254c0 15.57 10.278 25.251 26.36 25.251 16 0 26.029-9.679 26.029-25.249v-34.256h-.23c-3.4567 1.1479-6.5091 3.2683-8.7912 6.107-2.2822 2.8388-3.6973 6.2754-4.0758 9.898z"/><path d="m63.6 17.471h-.225v58.915h13.1v-42.895c-.124-6.547-5.962-13.767-12.875-16.02z"/><path d="m39.292 33.476v18.249.034c0 .181.013.361.013.544.0362 5.8301-2.0664 11.4711-5.9097 15.8551s-9.1606 7.2068-14.9453 7.9339c2.5935.6003 5.248.897 7.91.884 16 0 26.029-9.679 26.029-25.249v-34.256h-.23c-3.4567 1.1479-6.5091 3.2683-8.7912 6.107-2.2822 2.8388-3.6973 6.2754-4.0758 9.898"/></g></svg>