<svg height="115" viewBox="0 0 241 115" width="241" xmlns="http://www.w3.org/2000/svg" xmlns:xlink="http://www.w3.org/1999/xlink"><clipPath id="a"><path d="m0 0h241v115h-241z"/></clipPath><g clip-path="url(#a)" fill="#ff6b6b"><circle cx="2.5" cy="2.5" r="2.5"/><circle cx="2.5" cy="2.5" r="2.5" transform="translate(21)"/><circle cx="2.5" cy="2.5" r="2.5" transform="translate(42)"/><circle cx="2.5" cy="2.5" r="2.5" transform="translate(63)"/><circle cx="2.5" cy="2.5" r="2.5" transform="translate(84)"/><circle cx="2.5" cy="2.5" r="2.5" transform="translate(105)"/><circle cx="2.5" cy="2.5" r="2.5" transform="translate(126)"/><circle cx="2.5" cy="2.5" r="2.5" transform="translate(147)"/><circle cx="2.5" cy="2.5" r="2.5" transform="translate(168)"/><circle cx="2.5" cy="2.5" r="2.5" transform="translate(189)"/><circle cx="2.5" cy="2.5" r="2.5" transform="translate(210)"/><circle cx="2.5" cy="2.5" r="2.5" transform="translate(231)"/><circle cx="2.5" cy="2.5" r="2.5" transform="translate(252)"/><circle cx="2.5" cy="2.5" r="2.5" transform="translate(0 21)"/><circle cx="2.5" cy="2.5" r="2.5" transform="translate(21 21)"/><circle cx="2.5" cy="2.5" r="2.5" transform="translate(42 21)"/><circle cx="2.5" cy="2.5" r="2.5" transform="translate(63 21)"/><circle cx="2.5" cy="2.5" r="2.5" transform="translate(84 21)"/><circle cx="2.5" cy="2.5" r="2.5" transform="translate(105 21)"/><circle cx="2.5" cy="2.5" r="2.5" transform="translate(126 21)"/><circle cx="2.5" cy="2.5" r="2.5" transform="translate(147 21)"/><circle cx="2.5" cy="2.5" r="2.5" transform="translate(168 21)"/><circle cx="2.5" cy="2.5" r="2.5" transform="translate(189 21)"/><circle cx="2.5" cy="2.5" r="2.5" transform="translate(210 21)"/><circle cx="2.5" cy="2.5" r="2.5" transform="translate(231 21)"/><circle cx="2.5" cy="2.5" r="2.5" transform="translate(252 21)"/><circle cx="2.5" cy="2.5" r="2.5" transform="translate(0 42)"/><circle cx="2.5" cy="2.5" r="2.5" transform="translate(21 42)"/><circle cx="2.5" cy="2.5" r="2.5" transform="translate(42 42)"/><circle cx="2.5" cy="2.5" r="2.5" transform="translate(63 42)"/><circle cx="2.5" cy="2.5" r="2.5" transform="translate(84 42)"/><circle cx="2.5" cy="2.5" r="2.5" transform="translate(105 42)"/><circle cx="2.5" cy="2.5" r="2.5" transform="translate(126 42)"/><circle cx="2.5" cy="2.5" r="2.5" transform="translate(147 42)"/><circle cx="2.5" cy="2.5" r="2.5" transform="translate(168 42)"/><circle cx="2.5" cy="2.5" r="2.5" transform="translate(189 42)"/><circle cx="2.5" cy="2.5" r="2.5" transform="translate(210 42)"/><circle cx="2.5" cy="2.5" r="2.5" transform="translate(231 42)"/><circle cx="2.5" cy="2.5" r="2.5" transform="translate(252 42)"/><circle cx="2.5" cy="2.5" r="2.5" transform="translate(0 63)"/><circle cx="2.5" cy="2.5" r="2.5" transform="translate(21 63)"/><circle cx="2.5" cy="2.5" r="2.5" transform="translate(42 63)"/><circle cx="2.5" cy="2.5" r="2.5" transform="translate(63 63)"/><circle cx="2.5" cy="2.5" r="2.5" transform="translate(84 63)"/><circle cx="2.5" cy="2.5" r="2.5" transform="translate(105 63)"/><circle cx="2.5" cy="2.5" r="2.5" transform="translate(126 63)"/><circle cx="2.5" cy="2.5" r="2.5" transform="translate(147 63)"/><circle cx="2.5" cy="2.5" r="2.5" transform="translate(168 63)"/><circle cx="2.5" cy="2.5" r="2.5" transform="translate(189 63)"/><circle cx="2.5" cy="2.5" r="2.5" transform="translate(210 63)"/><circle cx="2.5" cy="2.5" r="2.5" transform="translate(231 63)"/><circle cx="2.5" cy="2.5" r="2.5" transform="translate(252 63)"/><circle cx="2.5" cy="2.5" r="2.5" transform="translate(0 84)"/><circle cx="2.5" cy="2.5" r="2.5" transform="translate(21 84)"/><circle cx="2.5" cy="2.5" r="2.5" transform="translate(42 84)"/><circle cx="2.5" cy="2.5" r="2.5" transform="translate(63 84)"/><circle cx="2.5" cy="2.5" r="2.5" transform="translate(84 84)"/><circle cx="2.5" cy="2.5" r="2.5" transform="translate(105 84)"/><circle cx="2.5" cy="2.5" r="2.5" transform="translate(126 84)"/><circle cx="2.5" cy="2.5" r="2.5" transform="translate(147 84)"/><circle cx="2.5" cy="2.5" r="2.5" transform="translate(168 84)"/><circle cx="2.5" cy="2.5" r="2.5" transform="translate(189 84)"/><circle cx="2.5" cy="2.5" r="2.5" transform="translate(210 84)"/><circle cx="2.5" cy="2.5" r="2.5" transform="translate(231 84)"/><circle cx="2.5" cy="2.5" r="2.5" transform="translate(252 84)"/><circle cx="2.5" cy="2.5" r="2.5" transform="translate(0 105)"/><circle cx="2.5" cy="2.5" r="2.5" transform="translate(21 105)"/><circle cx="2.5" cy="2.5" r="2.5" transform="translate(42 105)"/><circle cx="2.5" cy="2.5" r="2.5" transform="translate(63 105)"/><circle cx="2.5" cy="2.5" r="2.5" transform="translate(84 105)"/><circle cx="2.5" cy="2.5" r="2.5" transform="translate(105 105)"/><circle cx="2.5" cy="2.5" r="2.5" transform="translate(126 105)"/><circle cx="2.5" cy="2.5" r="2.5" transform="translate(147 105)"/><circle cx="2.5" cy="2.5" r="2.5" transform="translate(168 105)"/><circle cx="2.5" cy="2.5" r="2.5" transform="translate(189 105)"/><circle cx="2.5" cy="2.5" r="2.5" transform="translate(210 105)"/><circle cx="2.5" cy="2.5" r="2.5" transform="translate(231 105)"/><circle cx="2.5" cy="2.5" r="2.5" transform="translate(252 105)"/></g></svg>