<svg height="251" viewBox="0 0 1170 251" width="1170" xmlns="http://www.w3.org/2000/svg" xmlns:xlink="http://www.w3.org/1999/xlink"><clipPath id="a"><path d="m5 0 1160 20a5 5 0 0 1 5 5v201a5 5 0 0 1 -5 5l-1160 20a5 5 0 0 1 -5-5v-241a5 5 0 0 1 5-5z" transform="translate(1700 8920)"/></clipPath><path d="m5 0 1160 20a5 5 0 0 1 5 5v201a5 5 0 0 1 -5 5l-1160 20a5 5 0 0 1 -5-5v-241a5 5 0 0 1 5-5z" fill="#333f57"/><g clip-path="url(#a)" fill="none" transform="translate(-1700 -8920)"><g opacity=".17" transform="matrix(.545 .839 -.839 .545 1805.765 8878)"><path d="m66.5 0 66.5 116h-133z"/><path d="m66.50001526 16.08538055-52.69245148 91.91461945h105.38488007zm0-16.08538055 66.5 116h-133.00003052z" fill="#fff"/></g><g opacity=".15" transform="matrix(.545 .839 -.839 .545 2322.228 9058.337)"><path d="m34.5 0 34.5 60h-69z"/><path d="m34.50001526 16.04906845-20.67179871 35.95093536h41.34359741zm0-16.04906464 34.50001526 60h-69.00003052z" fill="#ff6b6b"/></g><g stroke="#fff" stroke-width="8"><g opacity=".06" transform="matrix(.77714596 .62932039 -.62932039 .77714596 2817.980376 9071.294971)"><circle cx="59.905" cy="59.905" r="59.905" stroke="none"/><circle cx="59.905" cy="59.905" fill="none" r="55.905"/></g><g opacity=".06" transform="matrix(.77714596 .62932039 -.62932039 .77714596 2872.308615 9020.862834)"><circle cx="59.905" cy="59.905" r="59.905" stroke="none"/><circle cx="59.905" cy="59.905" fill="none" r="55.905"/></g></g></g></svg>